<svg width="337.81" height="340.818" xmlns:xlink="http://www.w3.org/1999/xlink" xmlns="http://www.w3.org/2000/svg">
   <path fill="#ffffff"
      d="M336.551 148.189A167.738 167.738 0 00322.31 98.12C295.53 40.19 236.91 0 168.9 0 75.62 0 0 75.62 0 168.91c0 93.279 75.62 168.908 168.9 168.908 3.05 0 6.09-.078 9.1-.238 37.37-1.99 71.51-16.111 98.551-38.52a169.352 169.352 0 0024.199-24.57c16.61-20.7 28.431-45.4 33.81-72.421 2.13-10.72 3.25-21.81 3.25-33.159 0-7.01-.43-13.93-1.259-20.721zM67.28 270.53c-27.05-27.06-41.95-63.03-41.95-101.29 0-38.26 14.9-74.23 41.95-101.28C94.34 40.9 130.31 26 168.57 26c38.26 0 74.23 14.9 101.29 41.96 10.87 10.86 19.779 23.18 26.539 36.5-1.289 11.82-6.319 22.09-15.09 30.82-10.209 10.19-22.47 15.31-36.779 15.38h-.311c-19.199 0-36.979 4.859-53.38 14.55.021-.18.05-.35.061-.529.59-4.7.88-9.381.88-14.021v-18c0-19.47-4.83-37.22-14.5-53.27-9.66-16.05-22.35-28.61-38.04-37.68v203.16c-.34 3.55-.5 7.18-.5 10.86 0 20.909 5.34 39.609 16.04 56.1-33.05-3.141-63.72-17.53-87.5-41.3zm202.58 0c-11.23 11.229-24 20.359-37.83 27.2-13.38-2.28-25.18-7.911-34.29-16.471-7.22-6.779-12.76-15.399-16.061-25.62-2.31-7.149-3.52-15.1-3.459-23.75h34.3c-.561 44.11 65.689 44.36 66.609 0h18.33c-6.879 14.141-16.149 27.191-27.599 38.641z" />
   
</svg>
